<svg aria-hidden="true" style="position: absolute; width: 0; height: 0; overflow: hidden;" version="1.1" xmlns="http://www.w3.org/2000/svg" xmlns:xlink="http://www.w3.org/1999/xlink">
<defs>
<symbol id="icon-memory" viewBox="0 0 32 32">
<path fill="none" stroke="#ffb21e" style="stroke: var(--color1, #ffb21e)" stroke-linejoin="round" stroke-linecap="round" stroke-miterlimit="4" stroke-width="2" d="M9.333 18.667c-2.207 0.003-3.995 1.793-3.995 4 0 2.209 1.791 4 4 4 0.476 0 0.933-0.083 1.357-0.236l-0.028 0.009"></path>
<path fill="none" stroke="#ffb21e" style="stroke: var(--color1, #ffb21e)" stroke-linejoin="round" stroke-linecap="round" stroke-miterlimit="4" stroke-width="2" d="M5.685 20.806c-1.801-0.882-3.020-2.701-3.020-4.805 0-1.613 0.716-3.059 1.848-4.037l0.007-0.006M4.56 11.851c-0.354-0.521-0.564-1.164-0.564-1.856 0-1.841 1.492-3.333 3.333-3.333 0.756 0 1.453 0.252 2.013 0.676l-0.008-0.006M9.651 7.419c-0.2-0.415-0.317-0.903-0.317-1.418 0-1.841 1.492-3.333 3.333-3.333s3.332 1.492 3.333 3.332v20.667c-0.037 1.445-1.216 2.602-2.666 2.602s-2.63-1.157-2.666-2.599l-0-0.003M16 9.333c0 2.209 1.791 4 4 4v0M22.667 18.667c2.207 0.003 3.994 1.793 3.994 4 0 2.209-1.791 4-4 4-0.476 0-0.933-0.083-1.357-0.236l0.028 0.009"></path>
<path fill="none" stroke="#ffb21e" style="stroke: var(--color1, #ffb21e)" stroke-linejoin="round" stroke-linecap="round" stroke-miterlimit="4" stroke-width="2" d="M26.315 20.806c1.801-0.882 3.019-2.702 3.019-4.806 0-1.613-0.716-3.059-1.847-4.037l-0.007-0.006M27.44 11.851c0.354-0.521 0.564-1.164 0.564-1.856 0-1.841-1.492-3.333-3.333-3.333-0.756 0-1.453 0.252-2.013 0.676l0.008-0.006M16 6c0.002-1.841 1.495-3.333 3.336-3.333 0.257 0 0.507 0.029 0.747 0.084l-0.022-0.004c1.502 0.345 2.605 1.671 2.605 3.254 0 0.515-0.117 1.003-0.325 1.438l0.009-0.020M21.333 26.667c-0.037 1.445-1.216 2.602-2.666 2.602s-2.63-1.157-2.666-2.599l-0-0.003"></path>
</symbol>
<symbol id="icon-reaction" viewBox="0 0 32 32">
<path fill="none" stroke="#f55" style="stroke: var(--color2, #f55)" stroke-linejoin="round" stroke-linecap="round" stroke-miterlimit="4" stroke-width="2" d="M17.333 13.333v-9.333l-10.666 14.667h8v9.333l10.666-14.667h-8z"></path>
</symbol>
<symbol id="icon-verbal" viewBox="0 0 32 32">
<path fill="none" stroke="#00bb8f" style="stroke: var(--color3, #00bb8f)" stroke-linejoin="round" stroke-linecap="round" stroke-miterlimit="4" stroke-width="2" d="M12 16h8M16 29.333c7.364 0 13.333-5.969 13.333-13.333s-5.969-13.333-13.333-13.333c-7.364 0-13.333 5.969-13.333 13.333v0c0 2.429 0.65 4.707 1.784 6.667l-1.118 6 6-1.118c1.906 1.122 4.199 1.784 6.646 1.784 0.007 0 0.015 0 0.022-0h-0.001z"></path>
</symbol>
<symbol id="icon-visual" viewBox="0 0 32 32">
<path fill="none" stroke="#1125d6" style="stroke: var(--color4, #1125d6)" stroke-linejoin="round" stroke-linecap="round" stroke-miterlimit="4" stroke-width="2" d="M16 18.667c1.473 0 2.667-1.194 2.667-2.667s-1.194-2.667-2.667-2.667v0c-1.473 0-2.667 1.194-2.667 2.667s1.194 2.667 2.667 2.667v0z"></path>
<path fill="none" stroke="#1125d6" style="stroke: var(--color4, #1125d6)" stroke-linejoin="round" stroke-linecap="round" stroke-miterlimit="4" stroke-width="2" d="M28 16c-2.518 3.987-7.043 8-12 8s-9.482-4.013-12-8c3.066-3.789 6.656-8 12-8s8.934 4.211 12 8z"></path>
</symbol>
</defs>
</svg>
